<?xml version="1.0" encoding="UTF-8" standalone="no"?>
<!-- Created with Inkscape (http://www.inkscape.org/) -->
<svg xmlns:dc="http://purl.org/dc/elements/1.1/" xmlns:cc="http://creativecommons.org/ns#" xmlns:rdf="http://www.w3.org/1999/02/22-rdf-syntax-ns#" xmlns:svg="http://www.w3.org/2000/svg" xmlns="http://www.w3.org/2000/svg" xmlns:xlink="http://www.w3.org/1999/xlink" xmlns:sodipodi="http://sodipodi.sourceforge.net/DTD/sodipodi-0.dtd" xmlns:inkscape="http://www.inkscape.org/namespaces/inkscape" width="84.666664mm" height="119.80532mm" viewBox="0 0 299.99999 424.50704" id="svg4233" version="1.1" inkscape:version="0.91 r13725" sodipodi:docname="chili.svg">
  <defs id="defs4235">
    <linearGradient inkscape:collect="always" id="linearGradient4949">
      <stop style="stop-color:#d40000;stop-opacity:1" offset="0" id="stop4951"/>
      <stop style="stop-color:#530000;stop-opacity:0.07471264" offset="1" id="stop4953"/>
    </linearGradient>
    <linearGradient inkscape:collect="always" id="linearGradient4931">
      <stop style="stop-color:#d40000;stop-opacity:1" offset="0" id="stop4933"/>
      <stop style="stop-color:#530000;stop-opacity:1" offset="1" id="stop4935"/>
    </linearGradient>
    <linearGradient inkscape:collect="always" id="linearGradient4905">
      <stop style="stop-color:#530000;stop-opacity:1;" offset="0" id="stop4907"/>
      <stop style="stop-color:#530000;stop-opacity:0;" offset="1" id="stop4909"/>
    </linearGradient>
    <linearGradient inkscape:collect="always" xlink:href="#linearGradient4905" id="linearGradient4911" x1="379.61942" y1="414.91251" x2="402.29294" y2="425.92535" gradientUnits="userSpaceOnUse"/>
    <radialGradient inkscape:collect="always" xlink:href="#linearGradient4931" id="radialGradient4937" cx="246.58919" cy="591.47699" fx="246.58919" fy="591.47699" r="101.14276" gradientTransform="matrix(0.1234384,0.18492193,-0.87031889,0.58095186,695.52263,218.74193)" gradientUnits="userSpaceOnUse"/>
    <radialGradient inkscape:collect="always" xlink:href="#linearGradient4949" id="radialGradient4955" cx="369.85876" cy="507.16299" fx="369.85876" fy="507.16299" r="92.341705" gradientTransform="matrix(0.23119124,0.18481085,-0.8264531,1.033863,664.82596,-79.024017)" gradientUnits="userSpaceOnUse"/>
  </defs>
  <sodipodi:namedview id="base" pagecolor="#ffffff" bordercolor="#666666" borderopacity="1.0" inkscape:pageopacity="0.0" inkscape:pageshadow="2" inkscape:zoom="0.25358232" inkscape:cx="337.05514" inkscape:cy="263.54605" inkscape:document-units="px" inkscape:current-layer="layer1" showgrid="false" fit-margin-top="0" fit-margin-left="0" fit-margin-right="0" fit-margin-bottom="0" inkscape:window-width="1436" inkscape:window-height="855" inkscape:window-x="44" inkscape:window-y="0" inkscape:window-maximized="0"/>
  <metadata id="metadata4238">
    <rdf:RDF>
      <cc:Work rdf:about="">
        <dc:format>image/svg+xml</dc:format>
        <dc:type rdf:resource="http://purl.org/dc/dcmitype/StillImage"/>
        <dc:title/>
      </cc:Work>
    </rdf:RDF>
  </metadata>
  <g inkscape:label="Layer 1" inkscape:groupmode="layer" id="layer1" transform="translate(-141.77541,-150.08579)">
    <g id="g4963" transform="matrix(0.73651824,0,0,0.73651824,37.355235,77.417054)">
      <path sodipodi:nodetypes="cssssssssssssssc" inkscape:connector-curvature="0" id="path4306" d="m 159.92419,659.79903 c 0,0 3.14051,14.73622 -6.52259,14.73622 -9.66309,0 -16.82752,-22.20854 -4.58996,-39.61868 23.433,-33.33767 120.30551,-103.3951 143.25536,-146.39586 11.69756,-21.91754 61.36064,-91.55782 78.99579,-134.80016 8.77666,-21.52085 18.19817,-42.53808 25.6671,-66.75109 7.46893,-24.21301 11.29423,-46.54868 18.54155,-52.82969 6.88896,-5.97044 11.35413,-9.42152 19.0846,-9.42152 7.73048,0 40.93012,9.64102 42.75919,17.152 5.1055,20.96543 5.6632,47.83001 -0.48314,60.63591 -4.83337,10.07032 -3.09507,26.07091 -7.24733,37.44448 -5.55628,15.21937 -37.34351,64.345 -45.65811,78.51264 -36.71976,62.56853 -83.90263,102.58672 -95.42305,115.47397 -14.25306,15.9441 -61.13512,56.59988 -73.19793,65.22587 -5.0712,3.62636 -19.98779,15.65834 -28.98928,17.39357 -20.05092,3.86524 -64.25958,30.68032 -66.1922,43.24234 z" style="fill:#d40000;fill-opacity:1;fill-rule:evenodd;stroke:#ad0000;stroke-width:1px;stroke-linecap:butt;stroke-linejoin:miter;stroke-opacity:1"/>
      <path style="fill:#000000;fill-opacity:1;fill-rule:evenodd;stroke:none;stroke-width:1px;stroke-linecap:butt;stroke-linejoin:miter;stroke-opacity:1" d="m 143.09667,650.0187 0.2868,7.91177 c 0,0 -6.08826,-5.11857 5.42817,-23.0139 23.433,-36.41245 120.30551,-103.3951 143.25536,-146.39586 11.69756,-21.91754 61.36064,-91.55782 78.99579,-134.80016 8.77666,-21.52085 18.19817,-42.53808 25.6671,-66.75109 7.46893,-24.21301 11.29423,-46.54868 18.54155,-52.82969 6.88896,-5.97044 11.35413,-9.42152 19.0846,-9.42152 -9.5423,4.71076 -19.80933,13.04518 -22.60388,24.42192 -11.30751,46.03341 -38.41544,117.06035 -55.66717,146.13169 -43.57828,75.79586 -73.05295,126.67425 -138.66538,179.73353 -23.82319,24.01485 -67.47306,51.95352 -74.32294,75.01331 z" id="path4850" inkscape:connector-curvature="0" sodipodi:nodetypes="ccssssscsccc"/>
      <path sodipodi:nodetypes="csssccssscc" inkscape:connector-curvature="0" id="path4891" d="m 348.38061,497.95005 c 9.36507,-12.17459 58.99994,-83.34912 62.74597,-96.46022 3.74603,-13.1111 51.50788,-100.20625 51.50788,-109.57132 0,-9.36507 -3.60351,-33.65318 -9.22256,-37.39921 -5.61904,-3.74603 -14.19011,0.87544 -14.19011,0.87544 l -15.08591,-11.6758 c 0,0 -4.58074,2.31073 -8.32677,3.24723 -3.74602,0.93651 -10.30157,49.63488 -18.73014,69.30152 -8.42856,19.66665 -38.39678,78.66659 -50.57138,98.33324 -12.17459,19.66665 -42.14281,68.36501 -58.06343,87.09515 -126.53276,140.03934 14.77644,52.62185 59.93645,-3.74603 z" style="fill:url(#linearGradient4911);fill-opacity:1;fill-rule:evenodd;stroke:none;stroke-width:1px;stroke-linecap:butt;stroke-linejoin:miter;stroke-opacity:1"/>
      <path sodipodi:nodetypes="csssssssssssc" inkscape:connector-curvature="0" id="path4893" d="m 424.21732,245.61231 c 0,0 -3.22688,-6.53519 -7.90941,-4.66218 -4.68254,1.87302 -12.67339,30.36523 -14.5464,40.6668 -1.87302,10.30158 -19.66665,57.12693 -28.09521,73.98406 -8.42857,16.85712 -26.2222,50.57138 -35.58727,67.4285 -9.36507,16.85713 -28.09521,45.88885 -41.20631,63.68248 -13.1111,17.79363 -29.03171,36.52377 -41.20631,51.50788 -12.17459,14.98412 17.79364,-9.36507 31.84124,-26.22219 14.04761,-16.85713 57.12693,-75.85707 72.11104,-102.07927 14.98412,-26.22219 27.15871,-61.80946 36.52378,-81.47611 9.36507,-19.66664 15.92062,-37.46028 17.79363,-50.57137 1.87301,-13.1111 0,-21.53967 3.74603,-25.28569 3.74603,-3.74603 6.53519,-6.97291 6.53519,-6.97291 z" style="fill:#530000;fill-opacity:1;fill-rule:evenodd;stroke:none;stroke-width:1px;stroke-linecap:butt;stroke-linejoin:miter;stroke-opacity:1"/>
      <path sodipodi:nodetypes="cssscc" inkscape:connector-curvature="0" id="path4895" d="m 453.20184,291.1244 c 0,0 -9.57597,24.99047 -13.04354,34.50836 -4.89492,13.43574 -28.09521,55.25392 -30.90474,60.87296 -2.80952,5.61904 18.35122,-21.31042 29.06914,-45.80557 5.03663,-11.5109 15.8832,-42.22609 15.8832,-42.22609 z" style="fill:#ffffff;fill-rule:evenodd;stroke:none;stroke-width:1px;stroke-linecap:butt;stroke-linejoin:miter;stroke-opacity:1"/>
      <path style="fill:#ffffff;fill-rule:evenodd;stroke:none;stroke-width:1px;stroke-linecap:butt;stroke-linejoin:miter;stroke-opacity:1" d="m 404.47458,412.48966 c -6.08563,12.94003 -9.26755,12.45478 -12.57195,17.79782 -3.30439,5.34303 4.14219,3.96144 17.02363,-19.46834 6.05333,-11.01025 19.62336,-40.62318 19.62336,-40.62318 -27.59414,49.8238 -21.34779,36.51681 -24.07504,42.2937 z" id="path4897" inkscape:connector-curvature="0" sodipodi:nodetypes="csscc"/>
      <path inkscape:connector-curvature="0" id="path4901" d="m 165.61151,637.5176 c 0,0 12.23731,-14.68477 35.48819,-27.73789 23.25087,-13.05313 74.64755,-44.0543 79.95038,-49.76504 5.30283,-5.71074 11.01358,-11.01357 11.01358,-11.01357 0,0 -16.72432,24.0667 -53.02832,45.27802 -36.304,21.21133 -46.50176,25.29043 -57.10742,32.63281 -10.60566,7.34239 -16.31641,12.23731 -16.31641,12.23731 z" style="fill:#ffffff;fill-opacity:0.77011497;fill-rule:evenodd;stroke:none;stroke-width:1px;stroke-linecap:butt;stroke-linejoin:miter;stroke-opacity:1"/>
      <g transform="translate(-109.26473,-6.6221046)" id="g4884">
        <path style="fill:#1a911a;fill-opacity:1;fill-rule:evenodd;stroke:none;stroke-width:1px;stroke-linecap:butt;stroke-linejoin:miter;stroke-opacity:1" d="m 543.61003,230.64385 -14.51586,4.21428 c 0,0 -14.04761,12.64285 -10.76983,14.04761 3.27777,1.40476 8.42856,0.46825 12.17459,2.34127 3.74603,1.87301 16.85713,13.57935 16.85713,13.57935 0,0 10.76983,-8.42857 14.0476,-6.0873 3.27778,2.34127 9.36507,6.0873 9.36507,6.0873 0,0 2.34127,-6.0873 7.49206,-6.0873 5.15079,0 10.30157,7.49206 10.30157,7.49206 l 0,-11.23809 c 0,-1.87301 -0.9365,-6.55555 -2.34126,-8.89681 -1.40476,-2.34127 -5.15079,-5.61904 -5.15079,-9.83333 0,-4.21428 -0.93651,-18.26188 0.93651,-21.0714 1.87301,-2.80953 28.09521,-49.40075 31.84123,-54.55154 3.74603,-5.15079 30.90474,-37.6944 33.246,-38.63091 2.34127,-0.93651 4.68254,1.87301 8.42857,0.46825 3.74602,-1.40476 3.98015,-14.51586 -0.46826,-16.38887 -3.02091,-1.27196 -6.55554,-1.48009 -12.17459,2.80952 -6.40346,4.88845 -29.53658,29.23738 -36.99203,38.86504 -8.68499,11.21543 -29.96822,48.46424 -34.1825,54.31741 -1.83538,2.54914 -7.49206,10.76983 -9.83333,12.64284 -2.34126,1.87302 -18.26188,15.92062 -18.26188,15.92062 z" id="path4878" inkscape:connector-curvature="0" sodipodi:nodetypes="ccsscscscssssssssssssc"/>
        <path sodipodi:nodetypes="ccsscscscsssszsscccssc" inkscape:connector-curvature="0" id="path4880" d="m 543.61002,230.64385 -14.51586,4.21428 c 0,0 -14.04761,12.64285 -10.76983,14.04761 3.27777,1.40476 8.42856,0.46825 12.17459,2.34127 3.74603,1.87301 16.85713,11.57935 16.85713,11.57935 0,0 10.60428,-7.25633 13.88205,-4.91506 3.27778,2.34127 8.86841,5.08061 8.86841,5.08061 0,0 3.33459,-5.08061 8.48538,-5.08061 5.15079,0 9.30825,5.49206 9.30825,5.49206 l -0.16555,-8.41033 c -0.0369,-1.87265 -0.6054,-6.55555 -2.01016,-8.89681 -1.40476,-2.34127 0.49666,0 -17.23613,-8.50891 -3.79951,-1.82316 -13.01003,-1.85621 -11.81104,-5.0128 1.46156,-3.84789 3.82126,-9.69099 6.81133,-3.27306 2.99006,6.41794 2.95686,-13.65782 15.85677,-31.23681 12.40986,-16.9112 12.43225,-23.26062 24.23841,-35.93472 4.34112,-4.66025 0.11196,-5.24609 13.87635,-20.25457 2.26019,-5.55396 8.88391,-8.8176 6.13923,-13.76843 -2.70088,3.04573 -7.88205,7.20925 -17.71162,19.65606 -8.68499,11.21543 -29.96822,48.46424 -34.1825,54.31741 -1.83538,2.54914 -7.49206,10.76983 -9.83333,12.64284 -2.34126,1.87302 -18.26188,15.92062 -18.26188,15.92062 z" style="fill:#005400;fill-opacity:1;fill-rule:evenodd;stroke:none;stroke-width:1px;stroke-linecap:butt;stroke-linejoin:miter;stroke-opacity:1"/>
        <path style="fill:#005400;fill-opacity:1;fill-rule:evenodd;stroke:none;stroke-width:1px;stroke-linecap:butt;stroke-linejoin:miter;stroke-opacity:1" d="m 637.04647,114.50664 c 0,0 2.15218,-2.97995 4.63547,-4.63547 2.48329,-1.65553 4.63547,-3.1455 4.63547,-3.1455 -1.41416,4.91708 -0.66221,8.77429 0,10.42981 0.66221,1.65553 5.13213,3.47661 2.81439,4.13882 -2.31773,0.66221 -2.31773,-6.62211 -4.80102,-5.46324 -2.48329,1.15887 -11.91979,5.6288 -11.42313,3.47661 0.49666,-2.15218 4.13882,-4.80103 4.13882,-4.80103 z" id="path4882" inkscape:connector-curvature="0" sodipodi:nodetypes="cscssssc"/>
      </g>
      <path style="fill:url(#radialGradient4937);fill-opacity:1;fill-rule:evenodd;stroke:none;stroke-width:1px;stroke-linecap:butt;stroke-linejoin:miter;stroke-opacity:1" d="m 211.65058,600.96582 c 0,0 41.20631,-14.0476 58.99995,-26.22219 17.79363,-12.17459 57.35216,-52.31051 66.71723,-64.4851 -21.76358,-7.93815 8.4189,-65.43059 9.13983,-95.6576 -12.17459,19.66665 -42.14281,68.36501 -58.06343,87.09515 -15.92062,18.73014 -52.44439,56.19042 -63.68248,65.55549 -11.23808,9.36507 -41.20631,36.52378 -52.44439,45.88885 -11.23808,9.36507 -30.10909,26.22219 -30.10909,39.33329 0,13.1111 4.8234,19.66665 11.37895,19.66665 6.55555,0 1.87301,-9.36507 1.87301,-16.85713 0,-7.49205 5.61905,-17.79363 14.04761,-24.34918 8.42856,-6.55555 42.14281,-29.96823 42.14281,-29.96823 z" id="path4913" inkscape:connector-curvature="0" sodipodi:nodetypes="csccsssssssc"/>
      <path inkscape:connector-curvature="0" id="path4939" d="m 256.52155,582.37808 c 0,0 10.99378,-4.58074 19.69719,-11.90992 8.70341,-7.32919 21.07141,-18.78105 30.23289,-27.94253 9.16149,-9.16148 27.02638,-25.65216 35.72979,-36.64594 8.70341,-10.99378 36.18786,-49.01393 38.02016,-52.22045 1.8323,-3.20652 27.48445,-48.09779 17.86489,-47.63972 -9.61956,0.45807 -55.42697,22.44564 -64.13038,33.89749 -8.70341,11.45186 -46.72357,66.87883 -56.8012,76.04032 -10.07764,9.16148 -65.50461,61.84001 -61.38195,61.84001 4.12267,0 40.76861,4.58074 40.76861,4.58074 z" style="opacity:0.85700001;fill:url(#radialGradient4955);fill-opacity:1;fill-rule:evenodd;stroke:none;stroke-width:1px;stroke-linecap:butt;stroke-linejoin:miter;stroke-opacity:1"/>
      <path sodipodi:nodetypes="zccczcssz" inkscape:connector-curvature="0" id="path4961" d="m 433.66971,224.02458 c -5.43448,-0.43515 -13.86203,4.84479 -13.86203,4.84479 l -10.67032,11.13336 0.49293,2.95762 c 0,0 6.22934,-0.58691 9.16161,0.14438 2.93228,0.73129 8.17574,3.85892 8.17574,3.85892 0,0 -0.5775,-7.45386 1.88718,-11.39735 2.46468,-3.94349 12.81635,-9.85873 10.35167,-9.85873 -2.46469,0 -0.1023,-1.24784 -5.53678,-1.68299 z" style="fill:#003800;fill-opacity:1;fill-rule:evenodd;stroke:none;stroke-width:1px;stroke-linecap:butt;stroke-linejoin:miter;stroke-opacity:1"/>
    </g>
  </g>
</svg>